<?xml version="1.0" standalone="no"?>
<!DOCTYPE svg PUBLIC "-//W3C//DTD SVG 20010904//EN"
 "http://www.w3.org/TR/2001/REC-SVG-20010904/DTD/svg10.dtd">
<svg version="1.0" xmlns="http://www.w3.org/2000/svg"
 width="114.000000pt" height="125.000000pt" viewBox="0 0 114.000000 125.000000"
 preserveAspectRatio="xMidYMid meet">
<metadata>
Created by potrace 1.10, written by Peter Selinger 2001-2011
</metadata>
<g transform="translate(0.000000,125.000000) scale(0.100000,-0.100000)"
fill="#000000" stroke="none">
<path d="M455 1188 c-75 -14 -206 -81 -266 -137 -65 -59 -122 -152 -150 -244
-18 -56 -20 -88 -18 -186 4 -118 4 -118 51 -213 38 -76 61 -108 113 -156 219
-205 557 -201 767 9 218 216 218 555 2 775 -127 128 -317 187 -499 152z m220
-63 c152 -39 260 -126 328 -263 l42 -85 0 -127 0 -126 -42 -86 c-67 -135 -191
-237 -326 -268 -63 -14 -175 -12 -242 6 -149 38 -283 167 -334 321 -29 85 -29
220 0 305 81 242 335 384 574 323z"/>
<path d="M636 966 c-51 -19 -166 -132 -166 -163 0 -40 34 -26 102 41 47 46 75
66 101 71 71 14 142 -30 156 -97 13 -59 -2 -95 -74 -169 -56 -58 -65 -72 -55
-84 22 -27 47 -16 104 46 72 77 90 112 90 175 1 131 -135 225 -258 180z"/>
<path d="M543 668 c-68 -68 -123 -131 -123 -141 0 -16 4 -18 30 -21 17 -2 261
247 258 263 -2 9 -12 17 -23 19 -14 2 -56 -34 -142 -120z"/>
<path d="M328 683 c-81 -84 -90 -101 -90 -173 0 -63 16 -101 59 -142 55 -52
144 -64 219 -28 41 20 154 129 154 149 0 6 -9 15 -20 21 -17 9 -29 2 -89 -54
-73 -69 -101 -82 -156 -73 -68 11 -110 63 -107 134 2 43 19 70 78 126 57 53
69 74 53 93 -19 23 -32 17 -101 -53z"/>
</g>
</svg>
